<svg xmlns="http://www.w3.org/2000/svg" xmlns:xlink="http://www.w3.org/1999/xlink" fill="none" version="1.1" width="256" height="256" viewBox="0 0 256 256"><defs><clipPath id="master_svg0_1_0"><rect x="0" y="0" width="256" height="256" rx="0"/></clipPath></defs><g><g clip-path="url(#master_svg0_1_0)"><g><path d="M45.9591,91.333Q48.8039,96.2603,54.244299999999996,97.718Q58.2301,98.786,61.9404,97.5447C62.0131,97.8875,62.1406,98.2245,62.3264,98.5436L78.9762,127.0424C50.3832,142.41840000000002,30.85428,171.041,28,204.838L228,204.838C225.146,171.01600000000002,205.617,142.3936,177.024,127.0424L193.674,98.5436C193.787,98.34819999999999,193.879,98.14609999999999,193.95,97.9401Q196.982,98.5784,200.193,97.718Q205.634,96.2603,208.478,91.333Q210.384,88.0317,210.309,84.4076Q210.233,80.7834,208.483,77.6705L209.82,75.35470000000001L215.194,72.8734L214.514,67.2247L219.746,64.9897L215.997,51L206.671,53.49902L196.657,70.84309999999999Q193.086,70.8836,189.91,72.6302Q186.733,74.3768,184.827,77.6781Q181.983,82.6054,183.44,88.0458Q184.572,92.2671,187.791,94.9256C187.747,94.9907,187.705,95.0578,187.665,95.1267L170.815,123.9968C157.92,118.1782,143.44799999999998,114.9346,128,114.9346C112.5518,114.9346,98.0804,118.1782,85.186,123.9968L68.3352,95.1267C68.1128,94.7447,67.8261,94.4209,67.49629999999999,94.1609Q70.0223,91.6837,70.9971,88.0458Q72.4548,82.6054,69.6101,77.6781Q67.7041,74.3768,64.52770000000001,72.6302Q61.3513,70.8836,57.7802,70.84309999999999L47.7666,53.49902L38.4401,51L34.69161,64.9897L39.9238,67.2247L39.2432,72.8734L44.6177,75.35470000000001L45.9547,77.6705Q44.2043,80.7834,44.128699999999995,84.4076Q44.0531,88.0317,45.9591,91.333ZM49.9009,89.0572Q48.307900000000004,86.2979,48.774100000000004,83.23660000000001Q49.2404,80.1753,51.4043,78.0062L47.848299999999995,71.84700000000001L44.178200000000004,70.15559999999999L44.8511,64.37989999999999L40.1213,62.4461L41.6832,56.61711L44.792,57.45011L55.3461,75.7303Q58.3066,74.9409,61.1909,76.0678Q64.0752,77.19460000000001,65.6682,79.9539Q67.5458,83.2059,66.56700000000001,86.8588Q65.5882,90.5116,62.3362,92.3892Q59.084199999999996,94.2667,55.4313,93.288Q51.7785,92.3092,49.9009,89.0572ZM205.663,83.23660000000001Q206.13,86.2979,204.537,89.0572Q202.659,92.3092,199.006,93.288Q195.353,94.2667,192.101,92.3892Q188.849,90.5116,187.871,86.8588Q186.892,83.2059,188.769,79.9539Q190.362,77.19460000000001,193.247,76.0678Q196.131,74.9409,199.091,75.7303L209.646,57.45011L212.754,56.61711L214.316,62.4461L209.586,64.37989999999999L210.259,70.15559999999999L206.589,71.84700000000001L203.033,78.0062Q205.197,80.1753,205.663,83.23660000000001ZM53.8427,86.78139999999999Q54.7815,88.4074,56.608000000000004,88.8968Q58.4344,89.3861,60.0604,88.4474Q61.6864,87.5086,62.1758,85.6822Q62.6652,83.8557,61.7264,82.22970000000001Q60.7876,80.6037,58.961200000000005,80.1143Q57.1348,79.6249,55.5088,80.5637Q53.8828,81.5025,53.3934,83.3289Q52.903999999999996,85.1553,53.8427,86.78139999999999ZM197.83,88.8968Q199.656,88.4074,200.595,86.78139999999999Q201.534,85.1553,201.044,83.3289Q200.555,81.5025,198.929,80.5637Q197.303,79.6249,195.476,80.1143Q193.65,80.6037,192.711,82.22970000000001Q191.772,83.8557,192.262,85.6822Q192.751,87.5086,194.377,88.4474Q196.003,89.3861,197.83,88.8968ZM81.9812,176.637C77.3994,176.637,73.6434,172.947,73.6434,168.392C73.6434,163.836,77.3742,160.147,81.9812,160.147C86.563,160.147,90.3184,163.836,90.3184,168.392C90.3184,172.947,86.5882,176.637,81.9812,176.637ZM174.044,176.637C169.463,176.637,165.707,172.947,165.707,168.392C165.707,163.836,169.438,160.147,174.044,160.147C178.626,160.147,182.382,163.836,182.382,168.392C182.382,172.947,178.626,176.637,174.044,176.637Z" fill-rule="evenodd" fill="#201A1B" fill-opacity="1" style="mix-blend-mode:passthrough"/></g></g></g></svg>